<svg width="24" height="14" viewBox="0 0 24 14" fill="none" xmlns="http://www.w3.org/2000/svg">
<path d="M5.00021 2.01002C5.82285 1.89678 6.69428 2.75605 6.94525 3.94171C7.19623 5.12071 6.74308 6.17315 5.92045 6.29305C5.10479 6.41295 4.22638 5.55368 3.96844 4.36802C3.71049 3.18902 4.17758 2.13658 5.00021 2.01002ZM9.98481 2.01002C10.8144 2.13658 11.2745 3.18902 11.0305 4.36802C10.7656 5.55368 9.89419 6.41295 9.07155 6.29305C8.24195 6.17315 7.7888 5.12071 8.04675 3.94171C8.29772 2.75605 9.16915 1.89678 9.98481 2.01002ZM1.27048 5.07408C2.06522 4.7477 3.1458 5.34053 3.71049 6.37298C4.24032 7.42542 4.05906 8.53115 3.27129 8.85754C2.48351 9.18393 1.40991 8.59776 0.859159 7.55198C0.308413 6.5062 0.503614 5.39381 1.27048 5.07408ZM13.8191 5.07408C14.586 5.39381 14.7812 6.5062 14.2304 7.55198C13.6797 8.59776 12.6061 9.18393 11.8183 8.85754C11.0305 8.53115 10.8493 7.42542 11.3791 6.37298C11.9438 5.34053 13.0244 4.7477 13.8191 5.07408ZM12.6549 12.2547C12.6828 12.8808 12.1808 13.5735 11.5813 13.8333C10.3334 14.3795 8.85544 13.2471 7.46811 13.2471C6.08079 13.2471 4.5889 14.4261 3.36192 13.8333C2.66477 13.5069 2.18374 12.641 2.27437 11.9216C2.39985 10.9291 3.64775 10.3962 4.38672 9.67018C5.3697 8.73098 6.06685 6.96581 7.46811 6.96581C8.86241 6.96581 9.60138 8.70433 10.5425 9.67018C11.3164 10.4828 12.6061 11.1689 12.6549 12.2547Z" fill="white"/>
<path d="M19.0837 0.950939C19.3072 1.62132 19.079 2.29795 18.5742 2.4636C18.0694 2.62924 17.4787 2.21982 17.2552 1.54944C17.0317 0.879057 17.2599 0.202425 17.7647 0.0367826C18.2695 -0.12886 18.8602 0.280558 19.0837 0.950939ZM17.113 2.60267C17.4084 3.10897 17.3365 3.6981 16.9536 3.91687C16.5707 4.13564 16.0205 3.90281 15.7267 3.3965C15.4329 2.8902 15.5017 2.30108 15.8846 2.08231C16.2675 1.86353 16.8176 2.09637 17.1114 2.60267H17.113ZM16.6254 5.76862C17.4443 3.56058 18.8993 2.99959 19.5448 2.99959C20.1902 2.99959 21.6452 3.56058 22.4642 5.76862C22.5204 5.9202 22.5454 6.08272 22.5454 6.24524V6.27024C22.5454 6.6734 22.2188 7 21.8156 7C21.6358 7 21.4577 6.97812 21.2842 6.93437L19.9089 6.59058C19.6698 6.5312 19.4197 6.5312 19.1806 6.59058L17.8053 6.93437C17.6318 6.97812 17.4537 7 17.2739 7C16.8707 7 16.5441 6.6734 16.5441 6.27024V6.24524C16.5441 6.08272 16.5691 5.9202 16.6254 5.76862ZM22.136 3.91687C21.7531 3.6981 21.6812 3.10897 21.9765 2.60267C22.2719 2.09637 22.8205 1.86353 23.2034 2.08231C23.5863 2.30108 23.6582 2.8902 23.3628 3.3965C23.0674 3.90281 22.5189 4.13564 22.136 3.91687ZM20.3903 2.4636C19.8855 2.29795 19.6573 1.62132 19.8808 0.950939C20.1043 0.280558 20.695 -0.12886 21.1998 0.0367826C21.7046 0.202425 21.9328 0.879057 21.7093 1.54944C21.4858 2.21982 20.8951 2.62924 20.3903 2.4636Z" fill="white"/>
</svg>
