<svg width="193" height="173" viewBox="0 0 193 173" fill="none" xmlns="http://www.w3.org/2000/svg">
<path d="M61.6983 1.04703C72.961 -0.571311 84.8919 11.709 88.328 28.654C91.7641 45.5038 85.5601 60.5448 74.2973 62.2584C63.13 63.9719 51.1036 51.6915 47.5721 34.7466C44.0405 17.8968 50.4355 2.85576 61.6983 1.04703ZM129.943 1.04703C141.301 2.85576 147.601 17.8968 144.26 34.7466C140.633 51.6915 128.702 63.9719 117.439 62.2584C106.081 60.5448 99.8771 45.5038 103.409 28.654C106.845 11.709 118.776 -0.571311 129.943 1.04703ZM10.634 44.8374C21.515 40.1728 36.3093 48.6453 44.0405 63.4007C51.2945 78.4417 48.8129 94.2444 38.0274 98.909C27.2418 103.574 12.543 95.1963 5.00265 80.2505C-2.53767 65.3046 0.134848 49.4068 10.634 44.8374ZM182.439 44.8374C192.938 49.4068 195.611 65.3046 188.07 80.2505C180.53 95.1963 165.831 103.574 155.046 98.909C144.26 94.2444 141.778 78.4417 149.032 63.4007C156.764 48.6453 171.558 40.1728 182.439 44.8374ZM166.499 147.459C166.881 156.408 160.009 166.308 151.8 170.021C134.715 177.827 114.481 161.643 95.4866 161.643C76.4926 161.643 56.0669 178.493 39.2682 170.021C29.7235 165.356 23.1376 152.981 24.3784 142.699C26.0965 128.515 43.1815 120.899 53.2989 110.523C66.757 97.1003 76.3017 71.8732 95.4866 71.8732C114.576 71.8732 124.693 96.7195 137.579 110.523C148.173 122.137 165.831 131.942 166.499 147.459Z" fill="black"/>
</svg>
