<svg width="12" height="18" viewBox="0 0 12 18" fill="none" xmlns="http://www.w3.org/2000/svg">
<path d="M2.47166 0H9.06274C9.71826 0 10.3469 0.283811 10.8105 0.788998C11.274 1.29419 11.5344 1.97937 11.5344 2.69381V16.1628C11.5343 16.511 11.4414 16.8516 11.2669 17.1433C11.0925 17.4349 10.844 17.665 10.5517 17.8055C10.2594 17.946 9.936 17.991 9.62074 17.9348C9.30548 17.8786 9.01201 17.7238 8.77602 17.4891L6.32249 15.0494C6.17071 14.8985 5.97266 14.8148 5.7672 14.8148C5.56173 14.8148 5.36368 14.8985 5.2119 15.0494L2.75837 17.4891C2.52239 17.7238 2.22891 17.8786 1.91365 17.9348C1.59839 17.991 1.27495 17.946 0.982686 17.8055C0.69042 17.665 0.441934 17.4349 0.267466 17.1433C0.0929989 16.8516 7.38937e-05 16.511 0 16.1628L0 2.69381C0 1.97937 0.260406 1.29419 0.723931 0.788998C1.18746 0.283811 1.81613 0 2.47166 0ZM3.29554 7.18349C3.07703 7.18349 2.86747 7.27809 2.71297 7.44649C2.55846 7.61488 2.47166 7.84328 2.47166 8.08142C2.47166 8.31957 2.55846 8.54797 2.71297 8.71636C2.86747 8.88476 3.07703 8.97936 3.29554 8.97936H8.23885C8.45736 8.97936 8.66692 8.88476 8.82143 8.71636C8.97593 8.54797 9.06274 8.31957 9.06274 8.08142C9.06274 7.84328 8.97593 7.61488 8.82143 7.44649C8.66692 7.27809 8.45736 7.18349 8.23885 7.18349H3.29554Z" fill="white"/>
</svg>
