<?xml version="1.0" encoding="UTF-8"?><svg id="Layer_2" xmlns="http://www.w3.org/2000/svg" viewBox="0 0 362.64 360.31"><defs><style>.cls-1{fill-rule:evenodd;}</style></defs><g id="Layer_1-2"><g id="Untitled"><path class="cls-1" d="m255.94,3.94c-3.94,2.25-11.53,4.78-16.88,5.91-15.47,3.38-21.66,9-32.34,30.09-11.81,23.62-13.5,42.19-4.22,47.81,7.59,4.78,7.03,7.59-3.09,21.37-5.34,7.31-19.69,19.12-37.41,30.37-58.78,38.25-64.97,43.59-79.59,65.25-16.03,24.47-20.53,43.03-20.53,85.22v36.56l-8.44-4.5c-11.25-5.91-16.59-14.62-19.41-32.34-2.81-17.16-5.62-20.53-17.44-20.53-10.97,0-16.59,6.75-16.59,20.81,0,25.31,17.44,52.59,40.5,63.28,11.81,5.62,18.84,6.75,40.5,6.75,14.06,0,25.88-.84,25.88-2.25,0-17.72,7.31-52.03,13.22-63.28,6.47-11.81,23.06-27.56,32.91-30.94,1.69-.84-.56-5.06-5.06-10.12-8.16-8.44-9.56-14.91-7.03-34.03.56-3.94,0-13.78-1.12-21.94-1.97-12.94-1.69-14.62,2.81-14.62,2.81,0,10.13,3.37,16.03,7.31,8.16,5.62,11.83.18,22.51.6,9.52.37,19.63,2.7,20.19.73,1.41-3.94,19.01-14.82,24.21-12.68,5.56,2.3-4.74,15.11-1.25,27.54,8.65,30.83-2.17,38.76-6.03,44.55-2.53,3.94-6.47,8.16-8.44,8.72-2.81,1.12-3.09,5.62-1.13,20.53,1.69,12.66,1.69,25.03-.28,36.56-2.53,13.22-4.53,25.88,5.21,31.02,6.33,3.34.76,12.61.76,12.61l47.47-.31c55.12,0,57.09-.56,55.41-17.44-.56-7.88-2.53-9.84-10.41-12.38l-9.56-3.09-10.97-54-10.69-53.72,5.62-11.25c4.5-9,6.19-19.97,8.16-54,1.41-23.63,3.94-46.41,5.91-50.63,3.94-8.44,15.47-13.5,30.94-13.5,12.37,0,15.75-3.38,27.84-27.28,13.78-27.56,12.38-30.94-15.19-38.81-10.41-3.09-21.09-8.72-27.56-14.34-9.56-9-11.81-9.56-29.53-9.56-10.41.28-21.94,1.97-25.87,3.94Z"/><path class="cls-1" d="m164.46,218.01h0c3.03,0,5.49,2.46,5.49,5.48h0c0,3.03-2.46,5.48-5.49,5.48h0c-3.03,0-5.48-2.46-5.48-5.48h0c0-3.03,2.46-5.48,5.48-5.48Z"/><path class="cls-1" d="m204.69,217.83h0c3.03,0,5.48,2.46,5.48,5.48h0c0,3.03-2.46,5.48-5.48,5.48h0c-3.03,0-5.48-2.46-5.48-5.48h0c0-3.03,2.46-5.48,5.48-5.48Z"/></g></g></svg>