<svg width="28" height="28" viewBox="0 0 28 28" fill="none" xmlns="http://www.w3.org/2000/svg">
<path d="M18.939 10.2941C18.939 10.6217 18.8089 10.9359 18.5774 11.1676C18.3458 11.3992 18.0317 11.5294 17.7042 11.5294C17.3767 11.5294 17.0627 11.3992 16.8311 11.1676C16.5995 10.9359 16.4694 10.6217 16.4694 10.2941C16.4694 9.96647 16.5995 9.65227 16.8311 9.4206C17.0627 9.18894 17.3767 9.05879 17.7042 9.05879C18.0317 9.05879 18.3458 9.18894 18.5774 9.4206C18.8089 9.65227 18.939 9.96647 18.939 10.2941ZM18.939 13.79C19.662 13.5348 20.2881 13.0615 20.731 12.4353C21.1738 11.8092 21.4116 11.0611 21.4116 10.2941C21.4116 9.52708 21.1738 8.77895 20.731 8.15283C20.2881 7.52671 19.662 7.05342 18.939 6.79821L18.939 5.35291C18.939 5.02529 18.8089 4.71109 18.5774 4.47943C18.3458 4.24776 18.0317 4.11762 17.7042 4.11762C17.3767 4.11762 17.0627 4.24776 16.8311 4.47943C16.5995 4.71109 16.4694 5.02529 16.4694 5.35291L16.4694 6.79821C15.7464 7.05342 15.1203 7.52671 14.6775 8.15283C14.2346 8.77895 13.9968 9.52708 13.9968 10.2941C13.9968 11.0611 14.2346 11.8092 14.6775 12.4353C15.1203 13.0615 15.7464 13.5348 16.4694 13.79L16.4694 22.647C16.4694 22.9747 16.5995 23.2889 16.8311 23.5205C17.0627 23.7522 17.3767 23.8823 17.7042 23.8823C18.0317 23.8823 18.3458 23.7522 18.5774 23.5205C18.8089 23.2889 18.939 22.9747 18.939 22.647L18.939 13.79ZM11.5303 17.7059C11.5303 18.0335 11.4002 18.3477 11.1686 18.5793C10.937 18.811 10.623 18.9411 10.2955 18.9411C9.968 18.9411 9.65393 18.811 9.42236 18.5793C9.19079 18.3477 9.0607 18.0335 9.0607 17.7059C9.0607 17.3782 9.19079 17.064 9.42236 16.8324C9.65393 16.6007 9.968 16.4706 10.2955 16.4706C10.623 16.4706 10.937 16.6007 11.1686 16.8324C11.4002 17.064 11.5303 17.3782 11.5303 17.7059ZM11.5303 21.2017C12.2533 20.9465 12.8794 20.4732 13.3222 19.8471C13.7651 19.221 14.0029 18.4729 14.0029 17.7059C14.0029 16.9388 13.7651 16.1907 13.3222 15.5646C12.8794 14.9385 12.2533 14.4652 11.5303 14.21L11.5303 5.35291C11.5303 5.02529 11.4002 4.71109 11.1686 4.47942C10.937 4.24776 10.623 4.11762 10.2955 4.11762C9.968 4.11762 9.65393 4.24776 9.42236 4.47942C9.19079 4.71109 9.0607 5.02529 9.0607 5.35291L9.0607 14.21C8.33769 14.4652 7.71161 14.9385 7.26876 15.5646C6.82591 16.1907 6.58809 16.9388 6.58809 17.7059C6.58809 18.4729 6.82591 19.221 7.26876 19.8471C7.71161 20.4732 8.33769 20.9465 9.0607 21.2017L9.0607 22.647C9.0607 22.9746 9.19079 23.2889 9.42236 23.5205C9.65392 23.7522 9.968 23.8823 10.2955 23.8823C10.623 23.8823 10.937 23.7522 11.1686 23.5205C11.4002 23.2889 11.5303 22.9747 11.5303 22.647L11.5303 21.2017Z" fill="white"/>
<rect x="1" y="1" width="26" height="26" rx="4" stroke="white" stroke-width="2"/>
</svg>
