<svg width="21" height="18" viewBox="0 0 21 18" fill="none" xmlns="http://www.w3.org/2000/svg">
<path d="M11.25 2.625C11.25 2.10583 11.404 1.59831 11.6924 1.16663C11.9808 0.73495 12.3908 0.398497 12.8705 0.199817C13.3501 0.00113737 13.8779 -0.0508464 14.3871 0.0504398C14.8963 0.151726 15.364 0.401733 15.7312 0.768846C16.0983 1.13596 16.3483 1.60369 16.4496 2.11289C16.5508 2.62209 16.4989 3.14989 16.3002 3.62954C16.1015 4.1092 15.7651 4.51917 15.3334 4.80761C14.9017 5.09605 14.3942 5.25 13.875 5.25C13.1796 5.24753 12.5133 4.97018 12.0216 4.47843C11.5298 3.98668 11.2525 3.32043 11.25 2.625ZM5.25 7.125C5.25 6.60582 5.09605 6.09831 4.80761 5.66663C4.51917 5.23495 4.1092 4.8985 3.62955 4.69982C3.14989 4.50114 2.62209 4.44915 2.11289 4.55044C1.60369 4.65173 1.13596 4.90173 0.768846 5.26885C0.401733 5.63596 0.151726 6.10369 0.0504398 6.61289C-0.0508464 7.12209 0.00113737 7.64989 0.199817 8.12954C0.398497 8.6092 0.73495 9.01917 1.16663 9.30761C1.59831 9.59605 2.10583 9.75 2.625 9.75C3.32043 9.74753 3.98668 9.47017 4.47843 8.97843C4.97018 8.48668 5.24753 7.82043 5.25 7.125ZM7.125 5.25C7.64418 5.25 8.15169 5.09605 8.58337 4.80761C9.01505 4.51917 9.35151 4.1092 9.55019 3.62954C9.74887 3.14989 9.80085 2.62209 9.69956 2.11289C9.59828 1.60369 9.34827 1.13596 8.98116 0.768846C8.61404 0.401733 8.14631 0.151726 7.63711 0.0504398C7.12791 -0.0508464 6.60011 0.00113737 6.12046 0.199817C5.6408 0.398497 5.23083 0.73495 4.94239 1.16663C4.65395 1.59831 4.5 2.10583 4.5 2.625C4.50247 3.32043 4.77983 3.98668 5.27158 4.47843C5.76332 4.97018 6.42957 5.24753 7.125 5.25ZM16.0406 10.95C15.6595 10.7405 15.3234 10.458 15.0516 10.1186C14.7797 9.7792 14.5774 9.38952 14.4563 8.97188C14.2099 8.11275 13.6907 7.35715 12.9769 6.81927C12.2632 6.28139 11.3937 5.99047 10.5 5.99047C9.60627 5.99047 8.73683 6.28139 8.02307 6.81927C7.30932 7.35715 6.79005 8.11275 6.54375 8.97188C6.29943 9.81278 5.73354 10.5235 4.96875 10.95C4.2342 11.3465 3.65293 11.9767 3.31699 12.7408C2.98106 13.505 2.90968 14.3593 3.11415 15.1686C3.31863 15.9779 3.78727 16.6958 4.44584 17.2087C5.10442 17.7215 5.91529 18 6.75 18C7.24876 17.9995 7.74254 17.9008 8.20313 17.7094C9.67018 17.1016 11.318 17.0982 12.7875 17.7C13.2497 17.898 13.7472 18.0001 14.25 18C15.0855 18.0021 15.8978 17.7251 16.558 17.213C17.2182 16.7009 17.6884 15.983 17.8941 15.1732C18.0998 14.3634 18.0291 13.508 17.6933 12.743C17.3576 11.9779 16.7759 11.3468 16.0406 10.95ZM18.375 4.5C17.8558 4.5 17.3483 4.65395 16.9166 4.94239C16.485 5.23083 16.1485 5.6408 15.9498 6.12046C15.7511 6.60011 15.6992 7.12791 15.8004 7.63711C15.9017 8.14631 16.1517 8.61404 16.5188 8.98116C16.886 9.34827 17.3537 9.59828 17.8629 9.69956C18.3721 9.80085 18.8999 9.74886 19.3795 9.55018C19.8592 9.3515 20.2692 9.01505 20.5576 8.58337C20.846 8.15169 21 7.64418 21 7.125C20.9975 6.42957 20.7202 5.76332 20.2284 5.27158C19.7367 4.77983 19.0704 4.50247 18.375 4.5Z" fill="black"/>
</svg>
