<?xml version="1.0" encoding="UTF-8"?><svg id="Layer_2" xmlns="http://www.w3.org/2000/svg" viewBox="0 0 322.89 317.88"><defs><style>.cls-1{fill-rule:evenodd;}</style></defs><g id="Layer_1-2"><g id="Untitled"><g><path class="cls-1" d="m269.6,194.4c-29.52,0-53.28-23.76-53.28-53.28s24.12-52.92,53.28-52.92,53.28,23.76,53.28,53.28-23.76,52.92-53.28,52.92Zm0-88.92c-19.8,0-36,16.2-36,36s16.2,36,36,36,36-16.2,36-36-16.2-36-36-36Z"/><path class="cls-1" d="m254.84,205.92h-16.2c-16.2,0-31.68-7.92-41.04-21.24l-15.48-21.24c15.12-20.16-53.64-60.12-23.76-81.72,14.4-10.44,28.44,10.08,39.6,13.32,6.12,1.8,21.6,2.16,25.56-3.6,6.84-8.64-5.04-14.4-9-21.6v-.36c-1.8-12.96-9.36-22.68-18.72-26.64-5.04-2.16-15.84-33.84-16.92-42.84-7.56,6.48-18.36,16.56-14.76,27.36.72,1.44,1.44,3.24,2.16,4.68.72,1.8-.36,3.96-2.16,5.04-3.6,1.8-7.56,2.16-11.88,1.8-10.44,2.16-24.48,1.08-31.32,2.88-45.72,12.6-61.2,54.36-62.64,98.64-8.28-5.4-63-21.24-57.96-8.64,2.16,4.68,27.36,13.68,30.96,14.76,14.04,5.4,25.2,14.04,33.84,26.64,15.12,22.32,2.52,33.48,8.28,52.2,4.32,14.04,25.92,38.52,41.04,37.08,12.24-1.08.36-19.8-5.76-27.72-16.56-21.24,4.32-33.12,4.32-58.32v-5.76l33.12,47.16c14.76,20.52,22.68,45,22.68,70.2v29.88h17.28v-29.52c0-29.16-9-56.52-25.56-80.28l-47.52-66.24-16.2-23.04c-3.6-5.04-2.88-12.24,2.16-16.2,2.52-2.16,6.12-3.24,9.36-2.88,3.24.36,6.48,2.16,8.28,5.04l10.08,13.68,56.52,76.32c12.6,17.64,33.48,28.44,55.08,28.44h16.2c28.08,0,51.12,23.04,51.12,51.12v43.56h17.28v-43.56c0-37.8-30.6-68.4-68.04-68.4h0Z"/></g></g></g></svg>