<svg width="20" height="20" viewBox="0 0 20 20" fill="none" xmlns="http://www.w3.org/2000/svg">
<path fill-rule="evenodd" clip-rule="evenodd" d="M9.04493 1.91687e-08C7.68952 0.000115492 6.3538 0.324364 5.14919 0.945694C3.94458 1.56702 2.90602 2.46742 2.12017 3.57175C1.33431 4.67609 0.823941 5.95235 0.63164 7.29404C0.439338 8.63574 0.570681 10.004 1.01471 11.2846C1.45874 12.5652 2.20258 13.7211 3.18417 14.6557C4.16576 15.5904 5.35664 16.2768 6.65744 16.6576C7.95825 17.0384 9.33127 17.1026 10.662 16.8449C11.9926 16.5872 13.2424 16.015 14.3069 15.176L17.9589 18.828C18.1475 19.0102 18.4001 19.111 18.6623 19.1087C18.9245 19.1064 19.1753 19.0012 19.3608 18.8158C19.5462 18.6304 19.6513 18.3796 19.6536 18.1174C19.6559 17.8552 19.5551 17.6026 19.3729 17.414L15.7209 13.762C16.7089 12.5086 17.3241 11.0024 17.496 9.41573C17.668 7.82905 17.3897 6.22602 16.6932 4.79009C15.9966 3.35417 14.9098 2.14336 13.5572 1.29623C12.2046 0.449106 10.6409 -0.000107143 9.04493 1.91687e-08ZM2.54493 8.5C2.54493 6.77609 3.22975 5.12279 4.44874 3.90381C5.66772 2.68482 7.32102 2 9.04493 2C10.7688 2 12.4221 2.68482 13.6411 3.90381C14.8601 5.12279 15.5449 6.77609 15.5449 8.5C15.5449 10.2239 14.8601 11.8772 13.6411 13.0962C12.4221 14.3152 10.7688 15 9.04493 15C7.32102 15 5.66772 14.3152 4.44874 13.0962C3.22975 11.8772 2.54493 10.2239 2.54493 8.5Z" fill="#E99461"/>
</svg>
